<?xml version="1.0" encoding="UTF-8"?>
<svg width="170px" height="27px" viewBox="0 0 170 27" version="1.1" xmlns="http://www.w3.org/2000/svg" xmlns:xlink="http://www.w3.org/1999/xlink">
    <!-- Generator: Sketch 58 (84663) - https://sketch.com -->
    <title>logo/color-knockout</title>
    <desc>Created with Sketch.</desc>
    <g id="Symbols" stroke="none" stroke-width="1" fill="none" fill-rule="evenodd">
        <g id="global-/-nav---overlay" transform="translate(-48.000000, -47.000000)">
            <g id="logo/color-knockout" transform="translate(48.000000, 47.000000)">
                <g id="logotype" transform="translate(27.853595, 6.957759)" fill="#FFFFFF">
                    <path d="M9.00337662,2.65618812 C8.57815584,2.19408976 8.05446753,1.83423731 7.47116883,1.6027455 C6.78145455,1.3230078 6.04228571,1.18623731 5.2987013,1.19995862 C4.09766234,1.19995862 3.22779221,1.43145042 2.68909091,1.89487665 C2.142,2.34546681 1.83820779,3.02710616 1.86779221,3.73618812 C1.85454545,4.08453239 1.93005195,4.43022091 2.08857143,4.74094222 C2.25327273,5.02112255 2.48553247,5.25527009 2.76415584,5.42258157 C3.13285714,5.63415534 3.52761039,5.79615534 3.9387013,5.90504058 C4.41558442,6.04667993 4.97636364,6.18389304 5.62545455,6.34766353 C6.28646753,6.48222091 6.93953247,6.65351599 7.58155844,6.86110616 C8.10524675,7.0297455 8.60332468,7.27097501 9.06077922,7.57815534 C9.44935065,7.84771272 9.7685974,8.20579468 9.99246753,8.6227455 C10.2247273,9.09679468 10.3368831,9.6217455 10.3192208,10.1497947 C10.3311429,10.7141389 10.2070649,11.2727291 9.95714286,11.7786471 C9.71384416,12.2345488 9.36766234,12.627598 8.94597403,12.9250406 C8.47748052,13.2454996 7.95335065,13.4756635 7.40051948,13.6022537 C6.75672727,13.7540734 6.0965974,13.828434 5.43558442,13.8235652 C3.44327273,13.8607455 1.50748052,13.1591881 9.23705556e-14,11.853893 L0.666753247,10.7473357 C0.934779221,11.0199914 1.23062338,11.2629914 1.54987013,11.4727947 C1.89914286,11.7091553 2.27005195,11.9105488 2.65818182,12.0752045 C3.08516883,12.2518111 3.52937662,12.3850406 3.98285714,12.4735652 C4.47254545,12.5731553 4.97106494,12.6218439 5.47090909,12.6196307 C6.3527013,12.6678766 7.23007792,12.4638275 8.00103896,12.0309422 C8.59361039,11.6445324 8.93096104,10.9673193 8.88415584,10.2604504 C8.89651948,9.89086026 8.80820779,9.5252537 8.62805195,9.20258157 C8.43332468,8.89495862 8.16838961,8.63867993 7.85532468,8.45454878 C7.4565974,8.22172911 7.03093506,8.03892583 6.58805195,7.91012255 C6.08025974,7.75963075 5.48857143,7.60471272 4.82181818,7.4674996 C4.15506494,7.33028649 3.49714286,7.12667993 2.94961039,6.94963075 C2.46787013,6.79736845 2.01218182,6.57207337 1.59844156,6.28127009 C1.24651948,6.03295862 0.961272727,5.70143403 0.768311688,5.31635206 C0.570493506,4.88036845 0.475558442,4.4049914 0.49012987,3.92651599 C0.481298701,3.35066353 0.601844156,2.78012255 0.843376623,2.25782747 C1.07122078,1.7647455 1.41696104,1.33628649 1.85012987,1.00963075 C2.30979221,0.673237305 2.82553247,0.421384846 3.37350649,0.26602419 C4.0067013,0.0863192724 4.66241558,-0.00176269483 5.32077922,0.00487664943 C6.14251948,-0.00928728499 6.96028571,0.130138945 7.73168831,0.416515994 C8.43332468,0.686958617 9.08241558,1.07956517 9.64805195,1.57618812 L9.00337662,2.65618812 Z" id="Fill-15"></path>
                    <path d="M13.5778732,6.89633894 C13.5769948,7.62312583 13.6993065,8.34415862 13.9399558,9.02978157 C14.1730987,9.69283075 14.5245792,10.3080766 14.9776182,10.8445357 C15.4125532,11.3690439 15.950813,11.7988307 16.5583974,12.1064537 C17.8601117,12.7380766 19.3812805,12.7265685 20.6737221,12.0750275 C21.2839558,11.7545685 21.821774,11.3115029 22.2545013,10.773716 C22.6920857,10.2323881 23.0312026,9.61802747 23.256839,8.9589619 C23.4895403,8.29458485 23.6092026,7.59612583 23.6101041,6.89191272 C23.6118519,6.16601108 23.4860078,5.44542091 23.2391766,4.76289632 C23.0033844,4.10383075 22.6519039,3.49256845 22.2015143,2.95699468 C21.7612805,2.43824058 21.2221377,2.01243731 20.6163195,1.70437173 C19.9897481,1.38701108 19.2960597,1.22589632 18.5939818,1.2351914 C17.8715922,1.22589632 17.1575922,1.3932078 16.5142416,1.72207665 C15.9031247,2.03766681 15.3648649,2.47807665 14.9334623,3.01453567 C14.4958779,3.55630616 14.156761,4.17022419 13.9311247,4.82928976 C13.6979818,5.49366681 13.578761,6.19256845 13.5778732,6.89633894 M18.5939818,13.7791258 C17.6993844,13.7901914 16.8149429,13.5918963 16.0108649,13.1992898 C15.2429948,12.8155357 14.5585792,12.2830603 13.9973584,11.6324045 C13.4361377,10.9795357 12.9976701,10.2292898 12.7035922,9.41928976 C12.4046571,8.60442091 12.2549688,7.7421914 12.2620338,6.8742078 C12.2682156,5.11079796 12.9203974,3.41112583 14.0945013,2.09830616 C14.654839,1.46181435 15.334839,0.941732387 16.094761,0.566830748 C16.8811766,0.188388125 17.7435403,-0.00548072762 18.6160597,0.000273370745 C19.5124234,-0.00857908827 20.3981896,0.197683207 21.1991766,0.602240584 C21.9635143,0.991306158 22.6430727,1.52865042 23.1994364,2.18240452 C24.3232026,3.50009304 24.9484494,5.17187993 24.9657013,6.90563403 C24.9683195,7.79442091 24.8018519,8.67612583 24.4755403,9.50383075 C24.1713065,10.3156012 23.7226831,11.0654045 23.1508649,11.7169455 C22.5843455,12.3463553 21.9003714,12.859798 21.1373584,13.2258471 C20.3434364,13.605175 19.4731247,13.7946176 18.5939818,13.7791258" id="Fill-17"></path>
                    <path d="M27.0453486,6.80338812 C27.0515922,5.97125698 27.2012805,5.1462078 27.4869688,4.36453567 C27.7647091,3.56958485 28.1886052,2.83438812 28.7365792,2.19568321 C29.2986831,1.54502747 29.9866312,1.01476517 30.7589169,0.63765042 C31.6071506,0.224683207 32.5406052,0.0184209117 33.4833325,0.0356832068 C34.5713325,0.0051422232 35.644761,0.291076649 36.5742416,0.858961895 C37.4017221,1.37107665 38.0614104,2.11379796 38.4729429,2.99683075 L37.4176182,3.6651914 C37.2193584,3.23850288 36.9473584,2.85032255 36.6139818,2.51879796 C36.316813,2.22489632 35.9790208,1.97437173 35.6116442,1.7751914 C35.2641377,1.58751927 34.892787,1.44897829 34.5077481,1.36355206 C34.1377221,1.28166681 33.7606312,1.24050288 33.381774,1.23961763 C32.633774,1.22368321 31.8932805,1.39409304 31.2269688,1.73535534 C30.6185013,2.05492911 30.0828909,2.49799468 29.6550208,3.03666681 C29.2253844,3.5744537 28.8977481,4.18660124 28.6880078,4.84256845 C28.4742935,5.50030616 28.3656701,6.18725698 28.3656701,6.87863403 C28.3612545,7.61692911 28.4946052,8.34947009 28.7586571,9.03863403 C29.0037221,9.70610944 29.3635922,10.3248963 29.822813,10.8666668 C30.2705532,11.3871914 30.8149948,11.8156504 31.4256701,12.1281422 C32.0509169,12.4397488 32.7406312,12.599093 33.4391766,12.5928963 C33.834813,12.5924537 34.2291247,12.545093 34.6137221,12.451257 C35.0199558,12.359634 35.4107351,12.2109127 35.7750208,12.008634 C36.161826,11.7868799 36.5155143,11.5111258 36.8259299,11.1897816 C37.1579818,10.8604701 37.4299818,10.4758307 37.6295662,10.0522406 L38.7334623,10.628093 C38.5188649,11.1264865 38.2080078,11.5775193 37.8194364,11.9559619 C37.4242416,12.343257 36.9791506,12.6756668 36.494761,12.9425685 C36.0094883,13.2090275 35.4933065,13.4144045 34.9581377,13.5533881 C34.4397481,13.6923717 33.9054623,13.7640766 33.3685273,13.7658471 C32.478787,13.7769127 31.5996442,13.5653389 30.8119039,13.1506012 C30.0480078,12.7531258 29.3671247,12.2122406 28.8072286,11.5571586 C28.2393844,10.8932242 27.7912026,10.1354537 27.4825532,9.31748649 C27.1898,8.51191272 27.0418779,7.66074878 27.0453486,6.80338812" id="Fill-19"></path>
                    <polygon id="Fill-21" points="41.5019896 13.6862635 42.8266649 13.6862635 42.8266649 0.124296322 41.5019896 0.124296322"></polygon>
                    <path d="M54.1835481,8.40143403 L51.4547169,1.69127009 L48.690561,8.40143403 L54.1835481,8.40143403 Z M50.9027688,0.124384846 L52.0287429,0.124384846 L57.6541974,13.6996307 L56.2412104,13.6996307 L54.4749766,9.45487665 L48.4035481,9.45487665 L46.6682234,13.6996307 L45.237574,13.6996307 L50.9027688,0.124384846 Z" id="Fill-23"></path>
                    <polygon id="Fill-24" points="60.0738935 13.6860865 60.0738935 0.124119272 61.3985688 0.124119272 61.3985688 12.5175619 69.2185688 12.5175619 69.2185688 13.7037914"></polygon>
                    <path d="M79.8866649,6.87858976 C79.8932883,6.32531108 79.8129247,5.77380288 79.6482234,5.24531108 C79.5042753,4.77967173 79.2689247,4.34767173 78.9549766,3.97498321 C78.6485351,3.61690124 78.2630545,3.33495042 77.8290026,3.15170452 C77.3503532,2.95429468 76.8363792,2.85647501 76.3188727,2.8639996 L74.3936779,2.8639996 L74.3936779,10.933016 L76.3188727,10.933016 C76.8438857,10.9431963 77.3653662,10.8387373 77.8466649,10.6280488 C78.2798338,10.4337373 78.6631065,10.1411635 78.9638078,9.77334386 C79.2698078,9.39401599 79.5020675,8.95980288 79.6482234,8.49416353 C79.8120416,7.97186845 79.8928468,7.42611435 79.8866649,6.87858976 L79.8866649,6.87858976 Z M71.2718597,13.6861307 L71.2718597,0.124163535 L76.3232883,0.124163535 C77.3296,0.102032387 78.3301714,0.284393043 79.2640675,0.659737305 C80.0610805,0.988606158 80.7790545,1.48345862 81.3703013,2.11154058 C81.9416779,2.73077009 82.3770545,3.4637537 82.6464052,4.26268812 C82.9409247,5.10809796 83.0901714,5.99688485 83.0879636,6.89186845 C83.1012104,7.84704878 82.9396,8.79691763 82.6110805,9.69367173 C82.3121455,10.4965898 81.8467429,11.226475 81.2466649,11.8359668 C80.6368727,12.4383766 79.9091844,12.9071144 79.1095221,13.2129668 C78.2219896,13.5462619 77.2801455,13.7118029 76.3321195,13.6994094 L71.2718597,13.6861307 Z" id="Fill-25"></path>
                    <path d="M88.5324234,6.57322419 L91.3932805,6.57322419 C91.7783195,6.56348649 92.133774,6.3669619 92.3474883,6.04650288 C92.6221377,5.65965042 92.7616701,5.19312583 92.7448909,4.71863403 C92.7713844,4.23573239 92.6133065,3.76124058 92.3033325,3.39076517 C92.0582675,3.09066681 91.6966312,2.91007665 91.309826,2.89502747 L88.5456701,2.89502747 L88.5324234,6.57322419 Z M85.4061896,13.686175 L85.4061896,0.124207797 L91.5085273,0.124207797 C92.1205273,0.11712583 92.7259039,0.25522419 93.274761,0.526994682 C93.8037481,0.785486485 94.2806312,1.14179796 94.6789169,1.57601108 C95.0719039,2.0084537 95.3845273,2.50728976 95.601774,3.0499455 C95.8221117,3.57710944 95.9360338,4.14278157 95.9373584,4.7142078 C95.9378,5.12363403 95.8856961,5.53128976 95.782813,5.92699468 C95.6825792,6.31030616 95.5342156,6.67901108 95.3412545,7.0246996 C95.1535922,7.36640452 94.9186831,7.67933894 94.6435922,7.95465042 C94.3707091,8.22863403 94.0598519,8.46278157 93.7207351,8.64912583 L96.6919818,13.6994537 L93.1595143,13.6994537 L90.5680078,9.32191272 L88.5280078,9.32191272 L88.5280078,13.6994537 L85.4061896,13.686175 Z" id="Fill-26"></path>
                    <polygon id="Fill-27" points="98.6573143 13.6862635 101.787964 13.6862635 101.787964 0.124296322 98.6573143 0.124296322"></polygon>
                    <polygon id="Fill-28" points="106.82173 0.124296322 110.005366 9.76019796 113.153678 0.124296322 116.452119 0.124296322 111.32121 13.6862635 108.67186 13.6862635 103.505626 0.124296322"></polygon>
                    <polygon id="Fill-29" points="127.707356 10.9331045 127.707356 13.6862193 118.187356 13.6862193 118.187356 0.124252059 127.535148 0.124252059 127.535148 2.87736681 121.318005 2.87736681 121.318005 5.53310452 126.656447 5.53310452 126.656447 8.07376026 121.318005 8.07376026 121.318005 10.9640881"></polygon>
                    <path d="M133.218226,6.57322419 L136.079083,6.57322419 C136.464122,6.56348649 136.819577,6.3669619 137.033291,6.04650288 C137.307499,5.65965042 137.447031,5.19312583 137.430694,4.71863403 C137.457187,4.23573239 137.299109,3.76124058 136.989135,3.39076517 C136.742745,3.07074878 136.367421,2.87776517 135.964719,2.86404386 L133.200564,2.86404386 L133.218226,6.57322419 Z M130.091992,13.686175 L130.091992,0.124207797 L136.193888,0.124207797 C136.80633,0.11712583 137.411706,0.25522419 137.960122,0.526994682 C138.490434,0.78460124 138.967317,1.14047009 139.364719,1.57601108 C139.757706,2.0084537 140.07033,2.50728976 140.287577,3.0499455 C140.507914,3.57710944 140.621836,4.14278157 140.623161,4.7142078 C140.623603,5.12363403 140.571499,5.53128976 140.468616,5.92699468 C140.368382,6.31030616 140.220018,6.67901108 140.027057,7.0246996 C139.839395,7.36640452 139.604486,7.67933894 139.329395,7.95465042 C139.05607,8.22863403 138.745655,8.46278157 138.406538,8.64912583 L141.3822,13.6994537 L137.849732,13.6994537 L135.253369,9.32191272 L133.213369,9.32191272 L133.213369,13.6994537 L130.091992,13.686175 Z" id="Fill-30"></path>
                </g>
                <g id="logomark" transform="translate(0.441514, 0.172623)">
                    <path d="M7.24155844,26.3273459 L9.20649351,26.3273459 C17.3576623,26.3273459 18.3776623,21.0158705 18.3776623,13.2965262 L18.3776623,12.9202967 L7.24155844,26.3273459 Z" id="Fill-1" fill="#E60F65"></path>
                    <path d="M4.41558442e-05,14.4076426 L4.41558442e-05,24.9642 C4.41558442e-05,25.7171016 0.608953247,26.3274787 1.36004416,26.3274787 L1.36445974,26.3274787 L6.49978442,26.3274787 L9.80264156,14.4076426 L4.41558442e-05,14.4076426 Z" id="Fill-4" fill="#E60F65"></path>
                    <path d="M1.3645039,0.269975487 C0.613412987,0.26787541 0.0022961039,0.876039344 8.83116883e-05,1.62894098 L8.83116883e-05,1.63336721 L8.83116883e-05,13.7258262 L11.1141143,0.385170492 C10.481361,0.30682623 9.84419221,0.268318033 9.20658182,0.269975487 L1.3645039,0.269975487 Z" id="Fill-7" fill="#E60F65"></path>
                    <path d="M18.3732468,12.2209082 C18.2849351,6.02418689 17.287013,1.5271377 11.8425974,0.49582623 L8.57506494,12.2209082 L18.3732468,12.2209082 Z" id="Fill-10" fill="#E60F65"></path>
                    <path d="M8.57506494,12.2209082 L11.8425974,0.49582623 C11.6085714,0.451563934 11.3657143,0.416154098 11.114026,0.385170492 L4.01456646e-13,13.7258262 L4.01456646e-13,14.4074656 L9.8025974,14.4074656 L6.49974026,26.3273016 L7.24155844,26.3273016 L18.3776623,12.9202525 C18.3776623,12.6945148 18.3776623,12.4643508 18.3732468,12.2209082 L8.57506494,12.2209082 Z" id="Fill-12" fill="#FFFFFF"></path>
                </g>
            </g>
        </g>
    </g>
</svg>